<svg xmlns="http://www.w3.org/2000/svg" viewBox="0 0 1024 1024"> <g> <path d="M 541.41 811.83C531.47,814.93 520.20,815.43 512,813.14C502.46,810.47 495.59,807.46 490.65,803.77C488.24,801.97 482.95,797.99 478.89,794.92C470.30,788.44 449.49,773.12 446.35,770.97C441.63,767.75 431.48,759.64 431.17,758.84C430.98,758.38 430.40,758 429.88,758C429.35,758 424.91,754.96 420.02,751.25C407.83,742 391.97,730.15 378.20,720C368.57,712.89 366.46,710.85 365.32,707.56C363.55,702.39 364.99,697.66 368.83,696.07C370.77,695.27 383.37,695.02 411.54,695.22L 451.50 695.50L 455.18 698C457.20,699.38 466.65,706.42 476.18,713.65C485.70,720.89 497.33,729.71 502,733.25C512.53,741.24 518.72,743.50 527.77,742.66C529.38,742.51 530.68,742.41 531.96,742.17C538.29,740.98 543.97,736.35 583.50,704.94C592.07,698.13 616.02,679.06 629.01,668.70C629.84,668.04 634.78,664.12 640,660C645.22,655.88 650.16,651.95 650.99,651.28C666.73,638.59 694.39,616.45 703.15,609.53C718.27,597.58 748.22,573.43 753.72,568.75C758.34,564.81 762.37,563.91 763.39,566.58C763.73,567.45 764,582 764,598.90C764,640.32 763.41,642.08 744.50,657.17C739,661.56 732.92,666.41 731,667.95C729.08,669.50 719.62,676.88 710,684.36C688.13,701.35 678.20,709.16 655.50,727.21C645.60,735.08 629.40,747.80 619.50,755.49C609.60,763.17 601.28,769.72 601,770.05C600.72,770.37 597.58,772.89 594,775.64C590.42,778.40 584.66,782.86 581.20,785.57C577.73,788.28 573.40,791.65 571.58,793.05C569.76,794.45 566.07,797.40 563.38,799.61C556.14,805.57 549.35,809.35 541.41,811.83Z" fill="rgb(34,197,94)"/> <path d="M 755.14 891.95C742.72,893.21 291.93,893.18 279.50,891.92C229,886.78 184.67,856.95 162.02,812.86C155.55,800.29 151.21,788.39 147.75,773.77L 145.55 764.50L 145.23 503C145.21,488.17 145.19,474.14 145.18,460.87C144.90,246.49 144.88,230.43 149.05,215.55C149.65,213.43 150.33,211.33 151.11,208.67C155.03,195.36 165.34,174.67 173.39,163.97C182.08,152.42 198.77,136.57 210.15,129.04C228.60,116.84 249.81,108.52 270,105.58C280.56,104.03 301.17,103.92 523,104.20L 764.50 104.50L 774.21 106.72C793.11,111.04 812.63,119.59 826.93,129.83C861.56,154.60 883.01,189.43 888.95,230.52C890.35,240.17 890.37,755.06 888.97,764C881.11,814.41 851.38,855.66 807.50,877.05C789.04,886.04 775.61,889.87 755.14,891.95ZM 514.93 698.22C518.96,700.28 527.79,700.51 532.77,698.69C534.57,698.04 546.49,689.13 559.27,678.89C572.05,668.66 593.53,651.60 607,640.97C632.12,621.17 650.80,606.38 661.62,597.74C664.99,595.06 668.25,591.74 668.87,590.38C669.60,588.79 670,580.26 670,566.50C670,546.56 669.84,544.65 667.66,538.65C666.38,535.11 663.18,529.21 660.56,525.54C657.94,521.87 655.96,518.75 656.15,518.60C656.34,518.46 659.47,517.56 663.10,516.60C666.73,515.64 671.13,513.99 672.88,512.93C680.24,508.45 679.57,497.26 671.67,492.74C670.45,492.04 664.33,491.28 657.68,491L 645.87 490.50L 636.09 469.50C627.44,450.90 625.64,447.80 620.41,442.33C618.48,440.32 617.17,438.72 615.59,437.45C609.43,432.47 599.24,432.47 532.86,432.50C527.89,432.50 522.61,432.50 517,432.50L 431.50 432.50L 426 434.81C415.53,439.22 411.61,444.38 400,469.05L 389.67 491L 378.80 491C362.71,491 358,493.72 358,503C358,510.63 360.94,513.23 373.25,516.50C376.96,517.49 380,518.47 380,518.69C380,518.91 378.27,521.43 376.15,524.29C374.04,527.16 371.53,531.01 370.58,532.85C366.12,541.48 366.02,542.85 366.01,599.10C366,650.02 366.09,652.77 367.85,654.37C369.50,655.85 373.12,656.06 399.77,656.14C416.31,656.19 436.36,656.53 444.34,656.89C449.99,657.15 453.09,656.98 456.01,657.61C461.82,658.87 466.94,663.28 489.97,680.44C501.78,689.24 513.01,697.24 514.93,698.22ZM 309.82 667.75C317.22,672.84 324.19,677 325.31,677C326.43,677 328.17,676.26 329.17,675.35C330.93,673.76 331,668.23 331,539.31C331,530.13 331,521.55 331,513.53C330.98,409.01 330.97,400.88 335.02,396.42C335.67,395.70 336.42,395.08 337.30,394.16C339.06,392.33 342.23,389.93 344.34,388.84C346.46,387.76 364.91,376.84 385.34,364.59C423.67,341.62 483.57,305.94 501.95,295.14C511.64,289.44 512.83,289 518.45,289.01C524.26,289.01 525.08,289.36 539,297.63C552.52,305.66 652.07,365.34 683.50,384.25C695.50,391.48 697.93,393.37 700.50,397.51L 703.50 402.34L 704 481.84C704.36,538.30 704.82,561.44 705.60,561.70C707.38,562.29 761.34,520.23 762.70,517.19C764.32,513.58 764.52,386.20 762.92,377.43C761.39,369.06 756.36,359.40 750.45,353.52C747.33,350.41 737.62,343.77 724.95,336.09C679.08,308.25 647.51,289.10 630,278.48C619.83,272.31 600.92,260.85 588,253C537.39,222.28 536.02,221.60 522.70,220.46C514.83,219.79 503.84,221.64 496.61,224.86C492.25,226.80 481.20,233.36 431.50,263.50C350.92,312.38 337.85,320.28 314.50,334.25C287.69,350.28 281.97,354.83 277.07,364.01C276.27,365.52 275.57,366.76 274.96,368.03C270.94,376.47 270.96,386.83 271.20,492.97C271.21,497.54 271.22,502.30 271.23,507.24C271.48,624.26 271.61,631.77 273.30,636.13C275.78,642.49 280.41,647.59 289.06,653.50C293.08,656.25 302.43,662.66 309.82,667.75ZM 541.41 811.83C549.35,809.35 556.14,805.57 563.38,799.61C566.07,797.40 569.76,794.45 571.58,793.05C573.40,791.65 577.73,788.28 581.20,785.57C584.66,782.86 590.42,778.40 594,775.64C597.58,772.89 600.72,770.37 601,770.05C601.28,769.72 609.60,763.17 619.50,755.49C629.40,747.80 645.60,735.08 655.50,727.21C678.20,709.16 688.13,701.35 710,684.36C719.62,676.88 729.08,669.50 731,667.95C732.92,666.41 739,661.56 744.50,657.17C763.41,642.08 764,640.32 764,598.90C764,582 763.73,567.45 763.39,566.58C762.37,563.91 758.34,564.81 753.72,568.75C748.22,573.43 718.27,597.58 703.15,609.53C694.39,616.45 666.73,638.59 650.99,651.28C650.16,651.95 645.22,655.88 640,660C634.78,664.12 629.84,668.04 629.01,668.70C616.02,679.06 592.07,698.13 583.50,704.94C543.97,736.35 538.29,740.98 531.96,742.17C530.68,742.41 529.38,742.51 527.77,742.66C518.72,743.50 512.53,741.24 502,733.25C497.33,729.71 485.70,720.89 476.18,713.65C466.65,706.42 457.20,699.38 455.18,698L 451.50 695.50L 411.54 695.22C383.37,695.02 370.77,695.27 368.83,696.07C364.99,697.66 363.55,702.39 365.32,707.56C366.46,710.85 368.57,712.89 378.20,720C391.97,730.15 407.83,742 420.02,751.25C424.91,754.96 429.35,758 429.88,758C430.40,758 430.98,758.38 431.17,758.84C431.48,759.64 441.63,767.75 446.35,770.97C449.49,773.12 470.30,788.44 478.89,794.92C482.95,797.99 488.24,801.97 490.65,803.77C495.59,807.46 502.46,810.47 512,813.14C520.20,815.43 531.47,814.93 541.41,811.83ZM 627.53 510.55C624.58,511.79 608.36,511.99 517.78,511.96C514.16,511.96 510.66,511.96 507.27,511.96C415.15,511.93 406.97,511.93 404.65,508.23C404.33,507.74 404.13,507.18 403.84,506.54C402.29,503.15 402.79,501.72 414.12,477.11C422.58,458.72 423.93,456.40 427.89,453.36C430.31,451.51 434,449.54 436.09,448.98C438.57,448.31 467.57,448.05 519.69,448.23C599.30,448.50 599.51,448.51 603.50,450.66C605.70,451.85 608.71,454.10 610.20,455.66C612.64,458.24 628.83,491.24 632.04,500.20C633.78,505.05 632.24,508.58 627.53,510.55ZM 633.91 580C629.70,582.38 628.65,582.51 611,582.76C598.57,582.94 591.84,582.65 590.50,581.89C582.66,577.43 585.20,566.54 594.99,562.62C599.09,560.98 631.01,554.92 636.35,554.77C641.22,554.63 643.29,558.15 642.80,565.73C642.33,573.13 640.32,576.37 633.91,580ZM 447.45 580.75C444.99,582.91 444.17,583 427.69,582.90C408.23,582.78 405.44,582.34 400.51,578.58C395.84,575.01 394,571.17 394,564.98C394,558.92 395.23,556.24 398.59,554.96C401.76,553.76 438.57,560.98 443.28,563.73C450.89,568.18 452.81,576.03 447.45,580.75Z" fill="rgb(63,70,229)"/> <path d="M 755.14 891.95C775.61,889.87 789.04,886.04 807.50,877.05C851.38,855.66 881.11,814.41 888.97,764C890.37,755.06 890.35,240.17 888.95,230.52C883.01,189.43 861.56,154.60 826.93,129.83C812.63,119.59 793.11,111.04 774.21,106.72L 764.50 104.50L 523 104.20C301.17,103.92 280.56,104.03 270,105.58C249.81,108.52 228.60,116.84 210.15,129.04C198.77,136.57 182.08,152.42 173.39,163.97C165.34,174.67 155.03,195.36 151.11,208.67C144.54,231.04 144.87,214.24 145.23,503L 145.55 764.50L 147.75 773.77C151.21,788.39 155.55,800.29 162.02,812.86C184.67,856.95 229,886.78 279.50,891.92C291.93,893.18 742.72,893.21 755.14,891.95ZM 514.93 698.22C513.01,697.24 501.78,689.24 489.97,680.44C455.33,654.63 461.21,657.66 444.34,656.89C436.36,656.53 416.31,656.19 399.77,656.14C373.12,656.06 369.50,655.85 367.85,654.37C366.09,652.77 366,650.02 366.01,599.10C366.02,542.85 366.12,541.48 370.58,532.85C371.53,531.01 374.04,527.16 376.15,524.29C378.27,521.43 380,518.91 380,518.69C380,518.47 376.96,517.49 373.25,516.50C360.94,513.23 358,510.63 358,503C358,493.72 362.71,491 378.80,491L 389.67 491L 400 469.05C411.61,444.38 415.53,439.22 426,434.81L 431.50 432.50L 517 432.50C616.92,432.50 610.39,431.88 620.41,442.33C625.64,447.80 627.44,450.90 636.09,469.50L 645.87 490.50L 657.68 491C664.33,491.28 670.45,492.04 671.67,492.74C679.57,497.26 680.24,508.45 672.88,512.93C671.13,513.99 666.73,515.64 663.10,516.60C659.47,517.56 656.34,518.46 656.15,518.60C655.96,518.75 657.94,521.87 660.56,525.54C663.18,529.21 666.38,535.11 667.66,538.65C669.84,544.65 670,546.56 670,566.50C670,580.26 669.60,588.79 668.87,590.38C668.25,591.74 664.99,595.06 661.62,597.74C650.80,606.38 632.12,621.17 607,640.97C593.53,651.60 572.05,668.66 559.27,678.89C546.49,689.13 534.57,698.04 532.77,698.69C527.79,700.51 518.96,700.28 514.93,698.22ZM 447.45 580.75C452.81,576.03 450.89,568.18 443.28,563.73C438.57,560.98 401.76,553.76 398.59,554.96C395.23,556.24 394,558.92 394,564.98C394,571.17 395.84,575.01 400.51,578.58C405.44,582.34 408.23,582.78 427.69,582.90C444.17,583 444.99,582.91 447.45,580.75ZM 633.91 580C640.32,576.37 642.33,573.13 642.80,565.73C643.29,558.15 641.22,554.63 636.35,554.77C631.01,554.92 599.09,560.98 594.99,562.62C585.20,566.54 582.66,577.43 590.50,581.89C591.84,582.65 598.57,582.94 611,582.76C628.65,582.51 629.70,582.38 633.91,580ZM 627.53 510.55C632.24,508.58 633.78,505.05 632.04,500.20C628.83,491.24 612.64,458.24 610.20,455.66C608.71,454.10 605.70,451.85 603.50,450.66C599.51,448.51 599.30,448.50 519.69,448.23C467.57,448.05 438.57,448.31 436.09,448.98C434,449.54 430.31,451.51 427.89,453.36C423.93,456.40 422.58,458.72 414.12,477.11C402.79,501.72 402.29,503.15 403.84,506.54C406.37,512.10 402.55,511.92 517.78,511.96C608.36,511.99 624.58,511.79 627.53,510.55ZM 309.82 667.75C302.43,662.66 293.08,656.25 289.06,653.50C280.41,647.59 275.78,642.49 273.30,636.13C271.61,631.77 271.48,624.26 271.23,507.24C270.93,370.39 270.71,375.96 277.07,364.01C281.97,354.83 287.69,350.28 314.50,334.25C337.85,320.28 350.92,312.38 431.50,263.50C481.20,233.36 492.25,226.80 496.61,224.86C503.84,221.64 514.83,219.79 522.70,220.46C536.02,221.60 537.39,222.28 588,253C600.92,260.85 619.83,272.31 630,278.48C647.51,289.10 679.08,308.25 724.95,336.09C737.62,343.77 747.33,350.41 750.45,353.52C756.36,359.40 761.39,369.06 762.92,377.43C764.52,386.20 764.32,513.58 762.70,517.19C761.34,520.23 707.38,562.29 705.60,561.70C704.82,561.44 704.36,538.30 704,481.84L 703.50 402.34L 700.50 397.51C697.93,393.37 695.50,391.48 683.50,384.25C652.07,365.34 552.52,305.66 539,297.63C525.08,289.36 524.26,289.01 518.45,289.01C512.83,289 511.64,289.44 501.95,295.14C483.57,305.94 423.67,341.62 385.34,364.59C364.91,376.84 346.46,387.76 344.34,388.84C342.23,389.93 339.06,392.33 337.30,394.16C330.56,401.20 331,390.98 331,539.31C331,668.23 330.93,673.76 329.17,675.35C328.17,676.26 326.43,677 325.31,677C324.19,677 317.22,672.84 309.82,667.75Z" fill="rgb(255,255,255)"/> </g> </svg>